<?xml version="1.0"?>
<svg xmlns="http://www.w3.org/2000/svg" width="34" height="34" viewBox="0 0 34 34" fill="none">
<path d="M17 33C25.8366 33 33 25.8366 33 17C33 8.16344 25.8366 1 17 1C8.16344 1 1 8.16344 1 17C1 25.8366 8.16344 33 17 33Z" fill="#219653"/>
<path d="M17 34C7.62696 34 0 26.3744 0 17C0 7.62696 7.62696 0 17 0C26.3744 0 34 7.62696 34 17C34 26.3744 26.3744 34 17 34ZM17 2.63361C9.07807 2.63361 2.63361 9.07807 2.63361 17C2.63361 24.9219 9.07807 31.3664 17 31.3664C24.9219 31.3664 31.3664 24.9206 31.3664 17C31.3664 9.07807 24.9219 2.63361 17 2.63361Z" fill="#219653"/>
<path d="M14.2656 24.7161C13.8504 24.7161 13.4538 24.5503 13.161 24.2529L7.44448 18.4434C6.84495 17.8331 6.85268 16.854 7.46307 16.2529C8.07346 15.6549 9.05409 15.6611 9.65362 16.2715L14.2206 20.9128L23.6692 10.507C24.247 9.87336 25.2261 9.82844 25.8566 10.4016C26.4902 10.9764 26.5367 11.9555 25.9619 12.5906L15.412 24.2095C15.1254 24.5255 14.7226 24.7083 14.2966 24.7176C14.2857 24.7161 14.2764 24.7161 14.2656 24.7161Z" fill="white"/>
</svg>
